<?xml version="1.0" encoding="UTF-8"?><svg id="Layer_2" xmlns="http://www.w3.org/2000/svg" viewBox="0 0 200 200"><g id="Layer_1-2"><g><path d="M100,0C44.86,0,0,44.86,0,100s44.86,100,100,100,100-44.86,100-100S155.14,0,100,0ZM36.54,129.43c-.37-.08-1.74-.72-2.15-.9-1.09-.48-2.46-.76-3.95-.76-.37,0-.73,.02-1.08,.05,1.57-.51,2.93-.74,4.57-.8,1.24-.02,2.62,.5,3.91,.93,.56,.29,1.62,.54,2.86,.67,.73,.07,1.42,.08,1.98,.05-.01,.06-.06,.11-.15,.15-1.63,.47-2.98,.73-4.47,.76-.56,.01-1.06-.04-1.52-.14Zm49.7,5.69c-1.94,.86-3.56,1.43-5.4,1.73-.69,.12-1.32,.13-1.91,.1-.47-.03-2.28-.59-2.82-.74-1.44-.4-3.18-.51-5.03-.25-.46,.07-.9,.16-1.33,.26,1.85-.9,3.49-1.43,5.52-1.8,1.54-.24,3.33,.16,5,.47,.74,.26,2.1,.39,3.66,.32,.92-.04,1.77-.15,2.45-.29,0,.08-.05,.15-.15,.21Zm70.3-50.03c-.32,.2-.99,.39-1.88,.58,.32,.11,.98,.43,.93,1.21-.03,.37-.42,.66-.63,.78h0c-1,.99-4.36,1.57-7.79,.95-2.81-.5-5.45-.33-7.23-.09-.51,.21-1.15,.46-1.54,.77,0-.01,0-.03-.01-.04-.3,.31-.5,.68-.54,1.13-.1,1.14,1.26,1.9,2,2.52,.75,.63,1.38,1.36,1.97,2.12,.2,.26,6.64,6.39,9.61,14.94,.11,.42,.18,.67,.25,.93,1.92,6.05,.68,12.08-2,17.52-.19,.39-.38,.78-.6,1.18-1.84,5.09-5.89,9.12-10.75,11.3-.38,.18-.77,.35-1.17,.52-3.47,1.56-7.14,2.35-10.91,2.71-.44,.04-.88,.07-1.33,.1-6.09,.57-12.34,.22-18.38-1.04-.4-.08-.8-.17-1.21-.26-2.69-.75-5.32-1.8-7.81-3.14-.36-.19-.71-.39-1.06-.59-1.1-.75-2.36-1.5-3.68-2.27,.34,.15,.68,.31,1.03,.45,14.33,5.71-9.24-23.36-23.75-11.33-.68,.46-1.49,1.04-2.31,1.68-.45,.36-1.09,.65-1.79,.9l-.46,.52-.76,1.49c-.06,.06-.14,.14-.22,.25-.2,.26-.43,.67-.66,1.15-.47,.96-.94,2.2-1.47,3.32-.36,.75-.75,1.46-1.28,2.05-.31,.34-.69,.65-1.18,.84l-1.25,.47c-.1,1.04-.76,1.98-1.8,2.37-1.45,.54-3.06-.19-3.6-1.63-.54-1.45,.19-3.06,1.64-3.61,1.04-.39,2.16-.12,2.91,.6l1.25-.47s.18-.1,.38-.37c.21-.27,.44-.67,.68-1.15,.36-.73,.71-1.61,1.09-2.48l-14.47,5.44,.91,2.42-7.46-1.24,4.8-5.84,.86,2.3,11.29-4.24c-.8-.38-1.6-.78-2.31-1.08-.67-.29-1.27-.48-1.62-.51-.2-.02-.31,0-.32,0l-1.83,.69,.49,1.3-5.05,1.9-1.9-5.05,5.05-1.9,.56,1.48,1.83-.69c.65-.24,1.28-.2,1.86-.08,.59,.12,1.15,.32,1.73,.56,.33,.14,.67,.29,1,.45,3.77-.31,7.26-1,7.26-3.89,0-.44-.7-.71-1.41-.71-2.12,0-3.59,.62-6.09,.62-7.7,0-11.29-3.85-18.93-3.85-.1,0-.92-.05-1.72-.03-1.08,.04-2.65,.23-4.33,.85-.03-.14,1.96-.95,2.73-1.17,2.16-.64,4.04-.98,6.79-.98,4.68,0,7.57,1.06,12,1.06,1.67,0,3.85-.4,3.85-1.42,0-2.17-4.04-2.44-7.19-2.44-2.37,0-3.46,.35-5.97,.35-2.78,0-5.06-.17-7.21-.55-1.41-.31-5.59-1.33-7.92-3.14,.08,0,.16,.01,.24,.06,2.18,.89,4.36,1.46,7.19,1.46,6.22,0,9.3-2.34,15.46-2.34,8.28,0,13.02,4.56,20.21,4.56,1.67,0,3.34-.84,3.34-1.95,0-2.04-4.56-1.73-7.31-1.73-6.35,0-10.49-1.75-13.95-3.21l-5.86-1.52c-.08,0-.19,.02-.33,.06-.32,.08-.76,.25-1.24,.48-.97,.46-2.11,1.13-3.23,1.66-.75,.36-1.49,.67-2.28,.79-.45,.07-.94,.07-1.44-.09l-1.26-.42c-.72,.75-1.83,1.06-2.89,.72-1.47-.48-2.27-2.06-1.79-3.53,.48-1.47,2.06-2.27,3.53-1.79,1.05,.35,1.76,1.26,1.9,2.29l1.26,.41s.2,.04,.53-.05c.33-.08,.77-.25,1.25-.47,.64-.3,1.36-.69,2.1-1.08-.05,0-.11,0-.16,0,.1-.03,.21-.06,.31-.08,.05-.03,.11-.06,.16-.08l-14.69-4.83-.81,2.46-5.04-5.64,7.4-1.55-.77,2.33,11.46,3.77c-.39-.8-.76-1.61-1.12-2.29-.34-.64-.69-1.17-.94-1.42-.14-.15-.24-.19-.25-.19l-1.86-.61-.43,1.31-5.13-1.68,1.68-5.13,5.13,1.69-.49,1.5,1.86,.61c.66,.22,1.12,.65,1.5,1.1,.38,.46,.7,.97,1,1.52,.59,1.09,1.11,2.31,1.62,3.27,.34,.64,.68,1.17,.93,1.41,.03,.03,.06,.06,.09,.08l6.05,1.67c4.53,.37,7.75,1.96,12.22,1.96,1.09,0,2.18-.58,2.18-1.1,0-2.88-7.96-2.04-12-4.92-.16-.09-.2-.2-.17-.3,1.39,.64,4.3,1.72,7.6,1.46,.73,0,1.48-.01,2.25-.01,6.54,0,9.94,3.5,14.11,3.5,1.03,0,2.12-.44,2.12-1.15,0-.93-2.24-3.09-5.06-3.09-.77,0-3.79-.18-3.09-.23,1.03-.13,1.73-.22,2.95-.22,3.75,0,6.31,.96,9.25,1.61,.97,.21,5.14,.18,6.16-.01,3.18-.6,6.18-1.38,8.43-2.36,1.47-.64,2.89-1.47,4.14-2.49,1.65-1.35,4.72-4.09,3.34-6.02-1.47-2.05-7.43-4.18-9.43-5.63-1.44-1.05-5.14-4.13-6.85-6.38-.05-.04-.1-.09-.15-.13-.7-.82-2.15-2.36-3.59-2.98-1.73-.73-2.65-1.17-3.73-1.15v-.03c1.1-.02,2.62,.07,4.07,.48,2.17,.61,3.33-.03,3.89-.64,.09-.1,.15-.21,.2-.33h0s0-.02,0-.03c.04-.09,.07-.18,.09-.27,.02-.05,.04-.11,.05-.16,.07-.4,.05-.84,0-1.3-.19-.51-.38-.94-.7-1.31-.5-.59-1.24-1.03-1.68-1.26-1.6-.58-3.02-1.29-4.59-2.32-.33-.26,.09-.62,.56-.41,.7,.36,1.45,.55,2.26,.75,1.32,.38,2.43,.45,3.45,.42,0-.04,0-.07,0-.11-.51-.03-1.02-.1-1.49-.22-2.28-.67-4.06-1.48-6.11-2.82-.33-.27,.09-.62,.57-.41,.7,.36,1.45,.55,2.26,.75,2.2,.63,3.81,.42,5.41,.28h0c3.96-.61,5.39-3.8,6.85-6.97,.4-.88,3.48-7.61,5.85-9.56,3.79-3.14,9.51-5.15,15.89-5.15,7.08,0,13.21,2.57,17.06,6.21,3.52,3.34,4.41,10.04,4.62,11.32,.1,.4,.19,.8,.29,1.21,.44,2.02,.79,4.04,1.19,5.92,.04,.41,.08,.82,.12,1.23,.01,.12,.01,.25,0,.37,.18,1.2,.58,1.16,1.72,2.55,1.07,.93,1.54,1.42,1.73,1.7,.02,.04,.06,.08,.09,.11h0c1.3,1.38,8.16,3.39,9.82,4.32,.13,.06,.24,.12,.33,.18,1.88,1.14,2.89,2.71,.63,4.14Z"/><path d="M135.41,61.46s-9.07-6.74-15.47-2.07c0,0,4.54-1.78,6.11-.55,.04,.03,.09,.06,.14,.09-1.06,.98-1.73,2.38-1.73,3.93,0,2.96,2.4,5.37,5.37,5.37s5.37-2.4,5.37-5.37c0-.1-.02-.2-.02-.29,.07,.05,.15,.09,.23,.15,.97,.64,2.42,1.56,3.31-1.54-1.69,1.59-3.3,.28-3.3,.28Zm-5.58,5.75c-2.35,0-4.26-1.91-4.26-4.26,0-1.36,.64-2.6,1.68-3.39,.2,.1,.41,.2,.64,.3,.1,.04,.19,.09,.29,.13,.45,.2,.94,.4,1.45,.6,.06,.15,.1,.32,.1,.49,0,.73-.59,1.32-1.32,1.32s-1.32-.59-1.32-1.32c0-.05,0-.09,.01-.13-.42,.57-.65,1.26-.65,2,0,1.86,1.52,3.38,3.38,3.38s3.38-1.52,3.38-3.38c0-.39-.07-.77-.2-1.13,.36,.12,.69,.23,1,.34,.05,.26,.08,.53,.08,.8,0,2.35-1.91,4.26-4.25,4.26Z"/></g></g></svg>